<mxfile host="65bd71144e">
    <diagram id="Z_BuT-N2rbeQhxymySNZ" name="Page-1">
        <mxGraphModel dx="1685" dy="1771" grid="1" gridSize="10" guides="1" tooltips="1" connect="1" arrows="1" fold="1" page="1" pageScale="1" pageWidth="827" pageHeight="1169" math="0" shadow="0">
            <root>
                <mxCell id="0"/>
                <mxCell id="1" parent="0"/>
                <mxCell id="209" value="" style="group;rotation=-231;" parent="1" vertex="1" connectable="0">
                    <mxGeometry x="530" y="420" width="40" height="15" as="geometry"/>
                </mxCell>
                <mxCell id="211" value="" style="ellipse;whiteSpace=wrap;html=1;aspect=fixed;movable=1;resizable=1;rotatable=1;deletable=1;editable=1;connectable=1;rotation=-231;" parent="209" vertex="1">
                    <mxGeometry x="6" y="16" width="8" height="8" as="geometry"/>
                </mxCell>
                <mxCell id="210" value="" style="line;strokeWidth=1;rotatable=1;dashed=0;labelPosition=right;align=left;verticalAlign=middle;spacingTop=0;spacingLeft=6;points=[];portConstraint=eastwest;movable=1;resizable=1;deletable=1;editable=1;connectable=1;rotation=-231;" parent="209" vertex="1">
                    <mxGeometry x="6" width="32" height="10" as="geometry"/>
                </mxCell>
                <mxCell id="o__fEEJj0EwgaAU_-IBG-284" value="" style="group;rotation=0;" parent="1" vertex="1" connectable="0">
                    <mxGeometry x="590" y="85" width="138.5" height="17" as="geometry"/>
                </mxCell>
                <mxCell id="o__fEEJj0EwgaAU_-IBG-279" value="" style="group;rotation=-90;" parent="o__fEEJj0EwgaAU_-IBG-284" vertex="1" connectable="0">
                    <mxGeometry y="-35" width="138.5" height="52" as="geometry"/>
                </mxCell>
                <mxCell id="o__fEEJj0EwgaAU_-IBG-293" value="" style="group;rotation=-52;" parent="o__fEEJj0EwgaAU_-IBG-279" vertex="1" connectable="0">
                    <mxGeometry x="10" y="15" width="107" height="37" as="geometry"/>
                </mxCell>
                <mxCell id="o__fEEJj0EwgaAU_-IBG-285" value="" style="line;strokeWidth=1;rotatable=1;dashed=0;labelPosition=right;align=left;verticalAlign=middle;spacingTop=0;spacingLeft=6;points=[];portConstraint=eastwest;movable=1;resizable=1;deletable=1;editable=1;connectable=1;rotation=-90;" parent="o__fEEJj0EwgaAU_-IBG-293" vertex="1">
                    <mxGeometry x="14.75" y="19.25" width="47.5" height="10" as="geometry"/>
                </mxCell>
                <mxCell id="o__fEEJj0EwgaAU_-IBG-294" value="" style="line;strokeWidth=1;rotatable=1;dashed=0;labelPosition=right;align=left;verticalAlign=middle;spacingTop=0;spacingLeft=6;points=[];portConstraint=eastwest;movable=1;resizable=1;deletable=1;editable=1;connectable=1;rotation=-52;" parent="o__fEEJj0EwgaAU_-IBG-279" vertex="1">
                    <mxGeometry x="43.5" width="32" height="10" as="geometry"/>
                </mxCell>
                <mxCell id="o__fEEJj0EwgaAU_-IBG-295" value="" style="ellipse;whiteSpace=wrap;html=1;aspect=fixed;movable=1;resizable=1;rotatable=1;deletable=1;editable=1;connectable=1;rotation=-52;" parent="o__fEEJj0EwgaAU_-IBG-279" vertex="1">
                    <mxGeometry x="68.5" y="-15" width="8" height="8" as="geometry"/>
                </mxCell>
                <mxCell id="o__fEEJj0EwgaAU_-IBG-280" value="" style="line;strokeWidth=1;rotatable=1;dashed=0;labelPosition=right;align=left;verticalAlign=middle;spacingTop=0;spacingLeft=6;points=[];portConstraint=eastwest;movable=1;resizable=1;deletable=1;editable=1;connectable=1;rotation=-90;" parent="o__fEEJj0EwgaAU_-IBG-279" vertex="1">
                    <mxGeometry x="32.5" y="-4" width="32" height="10" as="geometry"/>
                </mxCell>
                <mxCell id="o__fEEJj0EwgaAU_-IBG-281" value="" style="ellipse;whiteSpace=wrap;html=1;aspect=fixed;movable=1;resizable=1;rotatable=1;deletable=1;editable=1;connectable=1;rotation=-90;" parent="o__fEEJj0EwgaAU_-IBG-279" vertex="1">
                    <mxGeometry x="45.5" y="-23" width="8" height="8" as="geometry"/>
                </mxCell>
                <mxCell id="o__fEEJj0EwgaAU_-IBG-296" value="data" style="text;strokeColor=none;fillColor=none;spacingLeft=4;spacingRight=4;overflow=hidden;rotatable=0;points=[[0,0.5],[1,0.5]];portConstraint=eastwest;fontSize=12;" parent="o__fEEJj0EwgaAU_-IBG-279" vertex="1">
                    <mxGeometry x="28.5" y="-53" width="70" height="30" as="geometry"/>
                </mxCell>
                <mxCell id="o__fEEJj0EwgaAU_-IBG-286" value="" style="ellipse;whiteSpace=wrap;html=1;aspect=fixed;movable=1;resizable=1;rotatable=1;deletable=1;editable=1;connectable=1;rotation=-90;" parent="o__fEEJj0EwgaAU_-IBG-279" vertex="1">
                    <mxGeometry x="45.5" y="12" width="8" height="8" as="geometry"/>
                </mxCell>
                <mxCell id="o__fEEJj0EwgaAU_-IBG-297" value="ora" style="text;strokeColor=none;fillColor=none;spacingLeft=4;spacingRight=4;overflow=hidden;rotatable=0;points=[[0,0.5],[1,0.5]];portConstraint=eastwest;fontSize=12;" parent="o__fEEJj0EwgaAU_-IBG-279" vertex="1">
                    <mxGeometry x="68.5" y="-34" width="70" height="30" as="geometry"/>
                </mxCell>
                <mxCell id="o__fEEJj0EwgaAU_-IBG-271" value="" style="group;rotation=90;" parent="1" vertex="1" connectable="0">
                    <mxGeometry x="570" y="390" width="40" height="15" as="geometry"/>
                </mxCell>
                <mxCell id="o__fEEJj0EwgaAU_-IBG-272" value="" style="line;strokeWidth=1;rotatable=1;dashed=0;labelPosition=right;align=left;verticalAlign=middle;spacingTop=0;spacingLeft=6;points=[];portConstraint=eastwest;movable=1;resizable=1;deletable=1;editable=1;connectable=1;rotation=90;" parent="o__fEEJj0EwgaAU_-IBG-271" vertex="1">
                    <mxGeometry x="4" y="-1" width="32" height="10" as="geometry"/>
                </mxCell>
                <mxCell id="o__fEEJj0EwgaAU_-IBG-273" value="" style="ellipse;whiteSpace=wrap;html=1;aspect=fixed;movable=1;resizable=1;rotatable=1;deletable=1;editable=1;connectable=1;rotation=90;" parent="o__fEEJj0EwgaAU_-IBG-271" vertex="1">
                    <mxGeometry x="16" y="20" width="8" height="8" as="geometry"/>
                </mxCell>
                <mxCell id="o__fEEJj0EwgaAU_-IBG-274" value="" style="group;rotation=90;" parent="1" vertex="1" connectable="0">
                    <mxGeometry x="540" y="390" width="40" height="15" as="geometry"/>
                </mxCell>
                <mxCell id="o__fEEJj0EwgaAU_-IBG-275" value="" style="line;strokeWidth=1;rotatable=1;dashed=0;labelPosition=right;align=left;verticalAlign=middle;spacingTop=0;spacingLeft=6;points=[];portConstraint=eastwest;movable=1;resizable=1;deletable=1;editable=1;connectable=1;rotation=90;" parent="o__fEEJj0EwgaAU_-IBG-274" vertex="1">
                    <mxGeometry x="4" y="-1" width="32" height="10" as="geometry"/>
                </mxCell>
                <mxCell id="o__fEEJj0EwgaAU_-IBG-276" value="" style="ellipse;whiteSpace=wrap;html=1;aspect=fixed;movable=1;resizable=1;rotatable=1;deletable=1;editable=1;connectable=1;rotation=90;" parent="o__fEEJj0EwgaAU_-IBG-274" vertex="1">
                    <mxGeometry x="16" y="20" width="8" height="8" as="geometry"/>
                </mxCell>
                <mxCell id="o__fEEJj0EwgaAU_-IBG-265" value="" style="group;rotation=35;" parent="1" vertex="1" connectable="0">
                    <mxGeometry x="625" y="420" width="40" height="15" as="geometry"/>
                </mxCell>
                <mxCell id="o__fEEJj0EwgaAU_-IBG-266" value="" style="line;strokeWidth=1;rotatable=1;dashed=0;labelPosition=right;align=left;verticalAlign=middle;spacingTop=0;spacingLeft=6;points=[];portConstraint=eastwest;movable=1;resizable=1;deletable=1;editable=1;connectable=1;rotation=35;" parent="o__fEEJj0EwgaAU_-IBG-265" vertex="1">
                    <mxGeometry x="1" y="1" width="32" height="10" as="geometry"/>
                </mxCell>
                <mxCell id="o__fEEJj0EwgaAU_-IBG-267" value="" style="ellipse;whiteSpace=wrap;html=1;aspect=fixed;movable=1;resizable=1;rotatable=1;deletable=1;editable=1;connectable=1;rotation=35;" parent="o__fEEJj0EwgaAU_-IBG-265" vertex="1">
                    <mxGeometry x="29" y="13" width="8" height="8" as="geometry"/>
                </mxCell>
                <mxCell id="o__fEEJj0EwgaAU_-IBG-259" value="" style="group;rotation=90;" parent="1" vertex="1" connectable="0">
                    <mxGeometry x="610" y="430" width="40" height="15" as="geometry"/>
                </mxCell>
                <mxCell id="o__fEEJj0EwgaAU_-IBG-260" value="" style="line;strokeWidth=1;rotatable=1;dashed=0;labelPosition=right;align=left;verticalAlign=middle;spacingTop=0;spacingLeft=6;points=[];portConstraint=eastwest;movable=1;resizable=1;deletable=1;editable=1;connectable=1;rotation=90;" parent="o__fEEJj0EwgaAU_-IBG-259" vertex="1">
                    <mxGeometry x="4" y="-1" width="32" height="10" as="geometry"/>
                </mxCell>
                <mxCell id="o__fEEJj0EwgaAU_-IBG-261" value="" style="ellipse;whiteSpace=wrap;html=1;aspect=fixed;movable=1;resizable=1;rotatable=1;deletable=1;editable=1;connectable=1;rotation=90;" parent="o__fEEJj0EwgaAU_-IBG-259" vertex="1">
                    <mxGeometry x="16" y="20" width="8" height="8" as="geometry"/>
                </mxCell>
                <mxCell id="o__fEEJj0EwgaAU_-IBG-255" value="" style="group;rotation=-180;" parent="1" vertex="1" connectable="0">
                    <mxGeometry x="90" y="120" width="40" height="15" as="geometry"/>
                </mxCell>
                <mxCell id="o__fEEJj0EwgaAU_-IBG-256" value="" style="line;strokeWidth=1;rotatable=1;dashed=0;labelPosition=right;align=left;verticalAlign=middle;spacingTop=0;spacingLeft=6;points=[];portConstraint=eastwest;movable=1;resizable=1;deletable=1;editable=1;connectable=1;rotation=-180;" parent="o__fEEJj0EwgaAU_-IBG-255" vertex="1">
                    <mxGeometry x="8" y="3" width="32" height="10" as="geometry"/>
                </mxCell>
                <mxCell id="o__fEEJj0EwgaAU_-IBG-257" value="" style="ellipse;whiteSpace=wrap;html=1;aspect=fixed;movable=1;resizable=1;rotatable=1;deletable=1;editable=1;connectable=1;rotation=-180;fillColor=#000000;" parent="o__fEEJj0EwgaAU_-IBG-255" vertex="1">
                    <mxGeometry y="3" width="8" height="8" as="geometry"/>
                </mxCell>
                <mxCell id="o__fEEJj0EwgaAU_-IBG-233" value="" style="group;rotation=-180;" parent="1" vertex="1" connectable="0">
                    <mxGeometry x="204.5" y="60" width="48" height="15" as="geometry"/>
                </mxCell>
                <mxCell id="o__fEEJj0EwgaAU_-IBG-234" value="" style="line;strokeWidth=1;rotatable=1;dashed=0;labelPosition=right;align=left;verticalAlign=middle;spacingTop=0;spacingLeft=6;points=[];portConstraint=eastwest;movable=1;resizable=1;deletable=1;editable=1;connectable=1;rotation=-180;" parent="o__fEEJj0EwgaAU_-IBG-233" vertex="1">
                    <mxGeometry x="9" y="2" width="32" height="10" as="geometry"/>
                </mxCell>
                <mxCell id="o__fEEJj0EwgaAU_-IBG-235" value="" style="ellipse;whiteSpace=wrap;html=1;aspect=fixed;movable=1;resizable=1;rotatable=1;deletable=1;editable=1;connectable=1;rotation=-180;" parent="o__fEEJj0EwgaAU_-IBG-233" vertex="1">
                    <mxGeometry x="1" y="3" width="8" height="8" as="geometry"/>
                </mxCell>
                <mxCell id="o__fEEJj0EwgaAU_-IBG-236" value="" style="group;rotation=-155;" parent="o__fEEJj0EwgaAU_-IBG-233" vertex="1" connectable="0">
                    <mxGeometry y="-12" width="48" height="15" as="geometry"/>
                </mxCell>
                <mxCell id="o__fEEJj0EwgaAU_-IBG-237" value="" style="line;strokeWidth=1;rotatable=1;dashed=0;labelPosition=right;align=left;verticalAlign=middle;spacingTop=0;spacingLeft=6;points=[];portConstraint=eastwest;movable=1;resizable=1;deletable=1;editable=1;connectable=1;rotation=-155;" parent="o__fEEJj0EwgaAU_-IBG-236" vertex="1">
                    <mxGeometry x="8" y="4" width="32" height="10" as="geometry"/>
                </mxCell>
                <mxCell id="o__fEEJj0EwgaAU_-IBG-238" value="" style="ellipse;whiteSpace=wrap;html=1;aspect=fixed;movable=1;resizable=1;rotatable=1;deletable=1;editable=1;connectable=1;rotation=-155;" parent="o__fEEJj0EwgaAU_-IBG-236" vertex="1">
                    <mxGeometry x="3" y="-4" width="8" height="8" as="geometry"/>
                </mxCell>
                <mxCell id="o__fEEJj0EwgaAU_-IBG-239" value="" style="group;rotation=-125;" parent="o__fEEJj0EwgaAU_-IBG-236" vertex="1" connectable="0">
                    <mxGeometry x="8" y="-7.5" width="40" height="15" as="geometry"/>
                </mxCell>
                <mxCell id="o__fEEJj0EwgaAU_-IBG-240" value="" style="line;strokeWidth=1;rotatable=1;dashed=0;labelPosition=right;align=left;verticalAlign=middle;spacingTop=0;spacingLeft=6;points=[];portConstraint=eastwest;movable=1;resizable=1;deletable=1;editable=1;connectable=1;rotation=-125;" parent="o__fEEJj0EwgaAU_-IBG-239" vertex="1">
                    <mxGeometry x="7" y="6" width="32" height="10" as="geometry"/>
                </mxCell>
                <mxCell id="o__fEEJj0EwgaAU_-IBG-241" value="" style="ellipse;whiteSpace=wrap;html=1;aspect=fixed;movable=1;resizable=1;rotatable=1;deletable=1;editable=1;connectable=1;rotation=-125;" parent="o__fEEJj0EwgaAU_-IBG-239" vertex="1">
                    <mxGeometry x="8" y="-10" width="8" height="8" as="geometry"/>
                </mxCell>
                <mxCell id="o__fEEJj0EwgaAU_-IBG-230" value="" style="group;rotation=-90;" parent="1" vertex="1" connectable="0">
                    <mxGeometry x="224.5" y="40" width="40" height="17" as="geometry"/>
                </mxCell>
                <mxCell id="o__fEEJj0EwgaAU_-IBG-231" value="" style="line;strokeWidth=1;rotatable=1;dashed=0;labelPosition=right;align=left;verticalAlign=middle;spacingTop=0;spacingLeft=6;points=[];portConstraint=eastwest;movable=1;resizable=1;deletable=1;editable=1;connectable=1;rotation=-90;" parent="o__fEEJj0EwgaAU_-IBG-230" vertex="1">
                    <mxGeometry x="4" y="7" width="32" height="10" as="geometry"/>
                </mxCell>
                <mxCell id="o__fEEJj0EwgaAU_-IBG-232" value="" style="ellipse;whiteSpace=wrap;html=1;aspect=fixed;movable=1;resizable=1;rotatable=1;deletable=1;editable=1;connectable=1;rotation=-90;" parent="o__fEEJj0EwgaAU_-IBG-230" vertex="1">
                    <mxGeometry x="17" y="-12" width="8" height="8" as="geometry"/>
                </mxCell>
                <mxCell id="51" value="Misurazione" style="whiteSpace=wrap;html=1;align=center;" parent="1" vertex="1">
                    <mxGeometry x="550" y="100" width="100" height="40" as="geometry"/>
                </mxCell>
                <mxCell id="54" value="PuntoInteresse" style="whiteSpace=wrap;html=1;align=center;" parent="1" vertex="1">
                    <mxGeometry x="550" y="340" width="100" height="40" as="geometry"/>
                </mxCell>
                <mxCell id="57" value="Riferire" style="shape=rhombus;perimeter=rhombusPerimeter;whiteSpace=wrap;html=1;align=center;" parent="1" vertex="1">
                    <mxGeometry x="540" y="210" width="120" height="60" as="geometry"/>
                </mxCell>
                <mxCell id="60" value="Registrare" style="shape=rhombus;perimeter=rhombusPerimeter;whiteSpace=wrap;html=1;align=center;" parent="1" vertex="1">
                    <mxGeometry x="340" y="95" width="110" height="50" as="geometry"/>
                </mxCell>
                <mxCell id="66" value="" style="endArrow=none;html=1;rounded=0;exitX=0.5;exitY=0;exitDx=0;exitDy=0;entryX=0.5;entryY=1;entryDx=0;entryDy=0;" parent="1" source="54" target="57" edge="1">
                    <mxGeometry relative="1" as="geometry">
                        <mxPoint x="670" y="310" as="sourcePoint"/>
                        <mxPoint x="830" y="310" as="targetPoint"/>
                    </mxGeometry>
                </mxCell>
                <mxCell id="67" value="" style="endArrow=none;html=1;rounded=0;exitX=0.5;exitY=1;exitDx=0;exitDy=0;entryX=0.5;entryY=0;entryDx=0;entryDy=0;" parent="1" source="51" target="57" edge="1">
                    <mxGeometry relative="1" as="geometry">
                        <mxPoint x="590" y="210" as="sourcePoint"/>
                        <mxPoint x="560" y="180" as="targetPoint"/>
                    </mxGeometry>
                </mxCell>
                <mxCell id="70" value="" style="endArrow=none;html=1;rounded=0;exitX=1;exitY=0.5;exitDx=0;exitDy=0;entryX=0;entryY=0.5;entryDx=0;entryDy=0;" parent="1" source="60" target="51" edge="1">
                    <mxGeometry relative="1" as="geometry">
                        <mxPoint x="430" y="160" as="sourcePoint"/>
                        <mxPoint x="590" y="160" as="targetPoint"/>
                    </mxGeometry>
                </mxCell>
                <mxCell id="71" value="" style="endArrow=none;html=1;rounded=0;exitX=1;exitY=0.5;exitDx=0;exitDy=0;entryX=0;entryY=0.5;entryDx=0;entryDy=0;" parent="1" source="51" target="58" edge="1">
                    <mxGeometry relative="1" as="geometry">
                        <mxPoint x="750" y="200" as="sourcePoint"/>
                        <mxPoint x="910" y="200" as="targetPoint"/>
                    </mxGeometry>
                </mxCell>
                <mxCell id="72" value="" style="endArrow=none;html=1;rounded=0;exitX=1;exitY=0.5;exitDx=0;exitDy=0;entryX=0;entryY=0.5;entryDx=0;entryDy=0;" parent="1" source="58" edge="1">
                    <mxGeometry relative="1" as="geometry">
                        <mxPoint x="840" y="330" as="sourcePoint"/>
                        <mxPoint x="970" y="120" as="targetPoint"/>
                    </mxGeometry>
                </mxCell>
                <mxCell id="142" value="Lavorare" style="shape=rhombus;perimeter=rhombusPerimeter;whiteSpace=wrap;html=1;align=center;" parent="1" vertex="1">
                    <mxGeometry x="140" y="210" width="120" height="60" as="geometry"/>
                </mxCell>
                <mxCell id="143" value="" style="endArrow=none;html=1;rounded=0;exitX=0.5;exitY=0;exitDx=0;exitDy=0;entryX=0.5;entryY=1;entryDx=0;entryDy=0;" parent="1" source="50" target="142" edge="1">
                    <mxGeometry relative="1" as="geometry">
                        <mxPoint x="160" y="320" as="sourcePoint"/>
                        <mxPoint x="320" y="320" as="targetPoint"/>
                    </mxGeometry>
                </mxCell>
                <mxCell id="144" value="" style="endArrow=none;html=1;rounded=0;exitX=0.5;exitY=1;exitDx=0;exitDy=0;entryX=0.5;entryY=0;entryDx=0;entryDy=0;" parent="1" source="52" target="142" edge="1">
                    <mxGeometry relative="1" as="geometry">
                        <mxPoint x="270" y="230" as="sourcePoint"/>
                        <mxPoint x="430" y="230" as="targetPoint"/>
                    </mxGeometry>
                </mxCell>
                <mxCell id="145" value="" style="endArrow=none;html=1;rounded=0;exitX=1;exitY=0.5;exitDx=0;exitDy=0;entryX=0;entryY=0.5;entryDx=0;entryDy=0;" parent="1" source="52" target="60" edge="1">
                    <mxGeometry relative="1" as="geometry">
                        <mxPoint x="330" y="190" as="sourcePoint"/>
                        <mxPoint x="490" y="190" as="targetPoint"/>
                    </mxGeometry>
                </mxCell>
                <mxCell id="146" value="Monitorare" style="shape=rhombus;perimeter=rhombusPerimeter;whiteSpace=wrap;html=1;align=center;" parent="1" vertex="1">
                    <mxGeometry x="340" y="210" width="120" height="60" as="geometry"/>
                </mxCell>
                <mxCell id="147" value="" style="endArrow=none;html=1;rounded=0;exitX=1;exitY=1;exitDx=0;exitDy=0;entryX=0;entryY=0;entryDx=0;entryDy=0;" parent="1" source="52" target="146" edge="1">
                    <mxGeometry relative="1" as="geometry">
                        <mxPoint x="320" y="180" as="sourcePoint"/>
                        <mxPoint x="480" y="180" as="targetPoint"/>
                    </mxGeometry>
                </mxCell>
                <mxCell id="148" value="" style="endArrow=none;html=1;rounded=0;exitX=1;exitY=1;exitDx=0;exitDy=0;entryX=0;entryY=0;entryDx=0;entryDy=0;" parent="1" source="146" target="54" edge="1">
                    <mxGeometry relative="1" as="geometry">
                        <mxPoint x="430" y="310" as="sourcePoint"/>
                        <mxPoint x="590" y="310" as="targetPoint"/>
                    </mxGeometry>
                </mxCell>
                <mxCell id="150" value="CategoriaParametriClimatici" style="whiteSpace=wrap;html=1;align=center;" parent="1" vertex="1">
                    <mxGeometry x="970" y="100" width="180" height="40" as="geometry"/>
                </mxCell>
                <mxCell id="162" value="(0,1)" style="text;strokeColor=none;fillColor=none;spacingLeft=4;spacingRight=4;overflow=hidden;rotatable=0;points=[[0,0.5],[1,0.5]];portConstraint=eastwest;fontSize=12;" parent="1" vertex="1">
                    <mxGeometry x="160" y="310" width="40" height="30" as="geometry"/>
                </mxCell>
                <mxCell id="163" value="(0,N)" style="text;strokeColor=none;fillColor=none;spacingLeft=4;spacingRight=4;overflow=hidden;rotatable=0;points=[[0,0.5],[1,0.5]];portConstraint=eastwest;fontSize=12;" parent="1" vertex="1">
                    <mxGeometry x="160" y="140" width="40" height="30" as="geometry"/>
                </mxCell>
                <mxCell id="164" value="(0,N)" style="text;strokeColor=none;fillColor=none;spacingLeft=4;spacingRight=4;overflow=hidden;rotatable=0;points=[[0,0.5],[1,0.5]];portConstraint=eastwest;fontSize=12;" parent="1" vertex="1">
                    <mxGeometry x="240" y="140" width="40" height="30" as="geometry"/>
                </mxCell>
                <mxCell id="165" value="(0,N)" style="text;strokeColor=none;fillColor=none;spacingLeft=4;spacingRight=4;overflow=hidden;rotatable=0;points=[[0,0.5],[1,0.5]];portConstraint=eastwest;fontSize=12;" parent="1" vertex="1">
                    <mxGeometry x="510" y="330" width="40" height="30" as="geometry"/>
                </mxCell>
                <mxCell id="166" value="(0,N)" style="text;strokeColor=none;fillColor=none;spacingLeft=4;spacingRight=4;overflow=hidden;rotatable=0;points=[[0,0.5],[1,0.5]];portConstraint=eastwest;fontSize=12;" parent="1" vertex="1">
                    <mxGeometry x="275" y="90" width="40" height="30" as="geometry"/>
                </mxCell>
                <mxCell id="167" value="(1,1)" style="text;strokeColor=none;fillColor=none;spacingLeft=4;spacingRight=4;overflow=hidden;rotatable=0;points=[[0,0.5],[1,0.5]];portConstraint=eastwest;fontSize=12;" parent="1" vertex="1">
                    <mxGeometry x="517.5" y="90" width="40" height="30" as="geometry"/>
                </mxCell>
                <mxCell id="168" value="(1,1)" style="text;strokeColor=none;fillColor=none;spacingLeft=4;spacingRight=4;overflow=hidden;rotatable=0;points=[[0,0.5],[1,0.5]];portConstraint=eastwest;fontSize=12;" parent="1" vertex="1">
                    <mxGeometry x="600" y="140" width="40" height="30" as="geometry"/>
                </mxCell>
                <mxCell id="169" value="(0,N)" style="text;strokeColor=none;fillColor=none;spacingLeft=4;spacingRight=4;overflow=hidden;rotatable=0;points=[[0,0.5],[1,0.5]];portConstraint=eastwest;fontSize=12;" parent="1" vertex="1">
                    <mxGeometry x="600" y="310" width="40" height="30" as="geometry"/>
                </mxCell>
                <mxCell id="170" value="(1,N)" style="text;strokeColor=none;fillColor=none;spacingLeft=4;spacingRight=4;overflow=hidden;rotatable=0;points=[[0,0.5],[1,0.5]];portConstraint=eastwest;fontSize=12;" parent="1" vertex="1">
                    <mxGeometry x="650" y="90" width="40" height="30" as="geometry"/>
                </mxCell>
                <mxCell id="171" value="(0,N)" style="text;strokeColor=none;fillColor=none;spacingLeft=4;spacingRight=4;overflow=hidden;rotatable=0;points=[[0,0.5],[1,0.5]];portConstraint=eastwest;fontSize=12;" parent="1" vertex="1">
                    <mxGeometry x="930" y="90" width="40" height="30" as="geometry"/>
                </mxCell>
                <mxCell id="180" value="" style="line;strokeWidth=1;rotatable=1;dashed=0;labelPosition=right;align=left;verticalAlign=middle;spacingTop=0;spacingLeft=6;points=[];portConstraint=eastwest;movable=1;resizable=1;deletable=1;editable=1;connectable=1;" parent="1" vertex="1">
                    <mxGeometry x="250" y="340" width="32" height="10" as="geometry"/>
                </mxCell>
                <mxCell id="181" value="" style="ellipse;whiteSpace=wrap;html=1;aspect=fixed;movable=1;resizable=1;rotatable=1;deletable=1;editable=1;connectable=1;" parent="1" vertex="1">
                    <mxGeometry x="282" y="341" width="8" height="8" as="geometry"/>
                </mxCell>
                <mxCell id="185" value="" style="group" parent="1" vertex="1" connectable="0">
                    <mxGeometry x="250" y="352.5" width="40" height="15" as="geometry"/>
                </mxCell>
                <mxCell id="186" value="" style="line;strokeWidth=1;rotatable=1;dashed=0;labelPosition=right;align=left;verticalAlign=middle;spacingTop=0;spacingLeft=6;points=[];portConstraint=eastwest;movable=1;resizable=1;deletable=1;editable=1;connectable=1;" parent="185" vertex="1">
                    <mxGeometry y="2.5" width="32" height="10" as="geometry"/>
                </mxCell>
                <mxCell id="187" value="" style="ellipse;whiteSpace=wrap;html=1;aspect=fixed;movable=1;resizable=1;rotatable=1;deletable=1;editable=1;connectable=1;" parent="185" vertex="1">
                    <mxGeometry x="32" y="3.5" width="8" height="8" as="geometry"/>
                </mxCell>
                <mxCell id="188" value="" style="group" parent="1" vertex="1" connectable="0">
                    <mxGeometry x="250" y="367.5" width="40" height="15" as="geometry"/>
                </mxCell>
                <mxCell id="189" value="" style="line;strokeWidth=1;rotatable=1;dashed=0;labelPosition=right;align=left;verticalAlign=middle;spacingTop=0;spacingLeft=6;points=[];portConstraint=eastwest;movable=1;resizable=1;deletable=1;editable=1;connectable=1;" parent="188" vertex="1">
                    <mxGeometry y="2.5" width="32" height="10" as="geometry"/>
                </mxCell>
                <mxCell id="190" value="" style="ellipse;whiteSpace=wrap;html=1;aspect=fixed;movable=1;resizable=1;rotatable=1;deletable=1;editable=1;connectable=1;" parent="188" vertex="1">
                    <mxGeometry x="32" y="3.5" width="8" height="8" as="geometry"/>
                </mxCell>
                <mxCell id="191" value="" style="group;rotation=90;" parent="1" vertex="1" connectable="0">
                    <mxGeometry x="137" y="390" width="40" height="15" as="geometry"/>
                </mxCell>
                <mxCell id="192" value="" style="line;strokeWidth=1;rotatable=1;dashed=0;labelPosition=right;align=left;verticalAlign=middle;spacingTop=0;spacingLeft=6;points=[];portConstraint=eastwest;movable=1;resizable=1;deletable=1;editable=1;connectable=1;rotation=90;" parent="191" vertex="1">
                    <mxGeometry x="4" y="-1" width="32" height="10" as="geometry"/>
                </mxCell>
                <mxCell id="193" value="" style="ellipse;whiteSpace=wrap;html=1;aspect=fixed;movable=1;resizable=1;rotatable=1;deletable=1;editable=1;connectable=1;rotation=90;fillColor=#000000;" parent="191" vertex="1">
                    <mxGeometry x="16" y="20" width="8" height="8" as="geometry"/>
                </mxCell>
                <mxCell id="194" value="" style="group;rotation=90;" parent="1" vertex="1" connectable="0">
                    <mxGeometry x="220" y="390" width="40" height="15" as="geometry"/>
                </mxCell>
                <mxCell id="195" value="" style="line;strokeWidth=1;rotatable=1;dashed=0;labelPosition=right;align=left;verticalAlign=middle;spacingTop=0;spacingLeft=6;points=[];portConstraint=eastwest;movable=1;resizable=1;deletable=1;editable=1;connectable=1;rotation=90;" parent="194" vertex="1">
                    <mxGeometry x="4" y="-1" width="32" height="10" as="geometry"/>
                </mxCell>
                <mxCell id="196" value="" style="ellipse;whiteSpace=wrap;html=1;aspect=fixed;movable=1;resizable=1;rotatable=1;deletable=1;editable=1;connectable=1;rotation=90;" parent="194" vertex="1">
                    <mxGeometry x="16" y="20" width="8" height="8" as="geometry"/>
                </mxCell>
                <mxCell id="197" value="" style="group;rotation=90;" parent="1" vertex="1" connectable="0">
                    <mxGeometry x="200" y="390" width="40" height="15" as="geometry"/>
                </mxCell>
                <mxCell id="198" value="" style="line;strokeWidth=1;rotatable=1;dashed=0;labelPosition=right;align=left;verticalAlign=middle;spacingTop=0;spacingLeft=6;points=[];portConstraint=eastwest;movable=1;resizable=1;deletable=1;editable=1;connectable=1;rotation=90;" parent="197" vertex="1">
                    <mxGeometry x="4" y="-1" width="32" height="10" as="geometry"/>
                </mxCell>
                <mxCell id="199" value="" style="ellipse;whiteSpace=wrap;html=1;aspect=fixed;movable=1;resizable=1;rotatable=1;deletable=1;editable=1;connectable=1;rotation=90;" parent="197" vertex="1">
                    <mxGeometry x="16" y="20" width="8" height="8" as="geometry"/>
                </mxCell>
                <mxCell id="50" value="Operatore" style="whiteSpace=wrap;html=1;align=center;" parent="1" vertex="1">
                    <mxGeometry x="150" y="340" width="100" height="40" as="geometry"/>
                </mxCell>
                <mxCell id="206" value="nome" style="text;strokeColor=none;fillColor=none;spacingLeft=4;spacingRight=4;overflow=hidden;rotatable=0;points=[[0,0.5],[1,0.5]];portConstraint=eastwest;fontSize=12;" parent="1" vertex="1">
                    <mxGeometry x="290" y="330" width="40" height="30" as="geometry"/>
                </mxCell>
                <mxCell id="207" value="cognome" style="text;strokeColor=none;fillColor=none;spacingLeft=4;spacingRight=4;overflow=hidden;rotatable=0;points=[[0,0.5],[1,0.5]];portConstraint=eastwest;fontSize=12;" parent="1" vertex="1">
                    <mxGeometry x="290" y="345" width="70" height="25" as="geometry"/>
                </mxCell>
                <mxCell id="o__fEEJj0EwgaAU_-IBG-210" value="email" style="text;strokeColor=none;fillColor=none;spacingLeft=4;spacingRight=4;overflow=hidden;rotatable=0;points=[[0,0.5],[1,0.5]];portConstraint=eastwest;fontSize=12;" parent="1" vertex="1">
                    <mxGeometry x="290" y="360" width="70" height="25" as="geometry"/>
                </mxCell>
                <mxCell id="o__fEEJj0EwgaAU_-IBG-211" value="CF" style="text;strokeColor=none;fillColor=none;spacingLeft=4;spacingRight=4;overflow=hidden;rotatable=0;points=[[0,0.5],[1,0.5]];portConstraint=eastwest;fontSize=12;direction=west;rotation=90;" parent="1" vertex="1">
                    <mxGeometry x="126" y="440" width="65" height="25" as="geometry"/>
                </mxCell>
                <mxCell id="o__fEEJj0EwgaAU_-IBG-212" value="username" style="text;strokeColor=none;fillColor=none;spacingLeft=4;spacingRight=4;overflow=hidden;rotatable=0;points=[[0,0.5],[1,0.5]];portConstraint=eastwest;fontSize=12;direction=west;rotation=90;" parent="1" vertex="1">
                    <mxGeometry x="209" y="440" width="70" height="25" as="geometry"/>
                </mxCell>
                <mxCell id="o__fEEJj0EwgaAU_-IBG-213" value="password" style="text;strokeColor=none;fillColor=none;spacingLeft=4;spacingRight=4;overflow=hidden;rotatable=0;points=[[0,0.5],[1,0.5]];portConstraint=eastwest;fontSize=12;direction=west;rotation=90;" parent="1" vertex="1">
                    <mxGeometry x="190" y="440" width="70" height="25" as="geometry"/>
                </mxCell>
                <mxCell id="o__fEEJj0EwgaAU_-IBG-216" value="" style="group;rotation=-90;" parent="1" vertex="1" connectable="0">
                    <mxGeometry x="120" y="80" width="40" height="15" as="geometry"/>
                </mxCell>
                <mxCell id="o__fEEJj0EwgaAU_-IBG-217" value="" style="line;strokeWidth=1;rotatable=1;dashed=0;labelPosition=right;align=left;verticalAlign=middle;spacingTop=0;spacingLeft=6;points=[];portConstraint=eastwest;movable=1;resizable=1;deletable=1;editable=1;connectable=1;rotation=-90;" parent="o__fEEJj0EwgaAU_-IBG-216" vertex="1">
                    <mxGeometry x="4" y="7" width="32" height="10" as="geometry"/>
                </mxCell>
                <mxCell id="o__fEEJj0EwgaAU_-IBG-218" value="" style="ellipse;whiteSpace=wrap;html=1;aspect=fixed;movable=1;resizable=1;rotatable=1;deletable=1;editable=1;connectable=1;rotation=-90;" parent="o__fEEJj0EwgaAU_-IBG-216" vertex="1">
                    <mxGeometry x="17" y="-12" width="8" height="8" as="geometry"/>
                </mxCell>
                <mxCell id="o__fEEJj0EwgaAU_-IBG-223" value="nome" style="text;strokeColor=none;fillColor=none;spacingLeft=4;spacingRight=4;overflow=hidden;rotatable=0;points=[[0,0.5],[1,0.5]];portConstraint=eastwest;fontSize=12;" parent="1" vertex="1">
                    <mxGeometry x="120" y="47.5" width="40" height="27.5" as="geometry"/>
                </mxCell>
                <mxCell id="o__fEEJj0EwgaAU_-IBG-224" value="indirizzo" style="text;strokeColor=none;fillColor=none;spacingLeft=4;spacingRight=4;overflow=hidden;rotatable=0;points=[[0,0.5],[1,0.5]];portConstraint=eastwest;fontSize=12;" parent="1" vertex="1">
                    <mxGeometry x="249.5" y="52.5" width="60" height="30" as="geometry"/>
                </mxCell>
                <mxCell id="o__fEEJj0EwgaAU_-IBG-242" value="&lt;font style=&quot;font-size: 10px;&quot;&gt;Via&lt;/font&gt;" style="text;html=1;align=center;verticalAlign=middle;whiteSpace=wrap;rounded=0;" parent="1" vertex="1">
                    <mxGeometry x="170.5" y="57" width="39" height="18" as="geometry"/>
                </mxCell>
                <mxCell id="o__fEEJj0EwgaAU_-IBG-246" value="&lt;font style=&quot;font-size: 10px;&quot;&gt;nCivico&lt;/font&gt;" style="text;html=1;align=center;verticalAlign=middle;whiteSpace=wrap;rounded=0;" parent="1" vertex="1">
                    <mxGeometry x="170.5" y="39" width="29" height="11" as="geometry"/>
                </mxCell>
                <mxCell id="o__fEEJj0EwgaAU_-IBG-247" value="&lt;font style=&quot;font-size: 10px;&quot;&gt;comune&lt;/font&gt;" style="text;html=1;align=center;verticalAlign=middle;whiteSpace=wrap;rounded=0;" parent="1" vertex="1">
                    <mxGeometry x="182.5" y="10" width="39" height="18" as="geometry"/>
                </mxCell>
                <mxCell id="o__fEEJj0EwgaAU_-IBG-248" value="&lt;font style=&quot;font-size: 10px;&quot;&gt;CAP&lt;/font&gt;" style="text;html=1;align=center;verticalAlign=middle;whiteSpace=wrap;rounded=0;" parent="1" vertex="1">
                    <mxGeometry x="225" y="3" width="39" height="18" as="geometry"/>
                </mxCell>
                <mxCell id="o__fEEJj0EwgaAU_-IBG-249" value="" style="group;rotation=-60;" parent="1" vertex="1" connectable="0">
                    <mxGeometry x="234.5" y="40" width="40" height="31" as="geometry"/>
                </mxCell>
                <mxCell id="o__fEEJj0EwgaAU_-IBG-250" value="" style="line;strokeWidth=1;rotatable=1;dashed=0;labelPosition=right;align=left;verticalAlign=middle;spacingTop=0;spacingLeft=6;points=[];portConstraint=eastwest;movable=1;resizable=1;deletable=1;editable=1;connectable=1;rotation=-60;" parent="o__fEEJj0EwgaAU_-IBG-249" vertex="1">
                    <mxGeometry x="2" y="6" width="32" height="10" as="geometry"/>
                </mxCell>
                <mxCell id="o__fEEJj0EwgaAU_-IBG-251" value="" style="ellipse;whiteSpace=wrap;html=1;aspect=fixed;movable=1;resizable=1;rotatable=1;deletable=1;editable=1;connectable=1;rotation=-60;" parent="o__fEEJj0EwgaAU_-IBG-249" vertex="1">
                    <mxGeometry x="25" y="-9" width="8" height="8" as="geometry"/>
                </mxCell>
                <mxCell id="o__fEEJj0EwgaAU_-IBG-225" value="" style="group;rotation=-90;" parent="1" vertex="1" connectable="0">
                    <mxGeometry x="224" y="74.5" width="40" height="15" as="geometry"/>
                </mxCell>
                <mxCell id="o__fEEJj0EwgaAU_-IBG-226" value="" style="line;strokeWidth=1;rotatable=1;dashed=0;labelPosition=right;align=left;verticalAlign=middle;spacingTop=0;spacingLeft=6;points=[];portConstraint=eastwest;movable=1;resizable=1;deletable=1;editable=1;connectable=1;rotation=-90;" parent="o__fEEJj0EwgaAU_-IBG-225" vertex="1">
                    <mxGeometry x="4" y="7" width="32" height="10" as="geometry"/>
                </mxCell>
                <mxCell id="o__fEEJj0EwgaAU_-IBG-227" value="" style="ellipse;whiteSpace=wrap;html=1;aspect=fixed;movable=1;resizable=1;rotatable=1;deletable=1;editable=1;connectable=1;rotation=-90;" parent="o__fEEJj0EwgaAU_-IBG-225" vertex="1">
                    <mxGeometry x="16" y="-11.5" width="8" height="8" as="geometry"/>
                </mxCell>
                <mxCell id="52" value="CentroMonitoraggio" style="whiteSpace=wrap;html=1;align=center;" parent="1" vertex="1">
                    <mxGeometry x="125" y="100" width="150" height="40" as="geometry"/>
                </mxCell>
                <mxCell id="o__fEEJj0EwgaAU_-IBG-252" value="&lt;span style=&quot;font-size: 10px;&quot;&gt;provincia&lt;/span&gt;" style="text;html=1;align=center;verticalAlign=middle;whiteSpace=wrap;rounded=0;" parent="1" vertex="1">
                    <mxGeometry x="267" y="18" width="35" height="10" as="geometry"/>
                </mxCell>
                <mxCell id="o__fEEJj0EwgaAU_-IBG-258" value="idCentroMonitoraggio" style="text;strokeColor=none;fillColor=none;spacingLeft=4;spacingRight=4;overflow=hidden;rotatable=0;points=[[0,0.5],[1,0.5]];portConstraint=eastwest;fontSize=12;" parent="1" vertex="1">
                    <mxGeometry x="-40" y="113.13" width="130" height="28.75" as="geometry"/>
                </mxCell>
                <mxCell id="o__fEEJj0EwgaAU_-IBG-262" value="" style="group;rotation=90;" parent="1" vertex="1" connectable="0">
                    <mxGeometry x="610" y="390" width="40" height="15" as="geometry"/>
                </mxCell>
                <mxCell id="o__fEEJj0EwgaAU_-IBG-263" value="" style="line;strokeWidth=1;rotatable=1;dashed=0;labelPosition=right;align=left;verticalAlign=middle;spacingTop=0;spacingLeft=6;points=[];portConstraint=eastwest;movable=1;resizable=1;deletable=1;editable=1;connectable=1;rotation=90;" parent="o__fEEJj0EwgaAU_-IBG-262" vertex="1">
                    <mxGeometry x="4" y="-1" width="32" height="10" as="geometry"/>
                </mxCell>
                <mxCell id="o__fEEJj0EwgaAU_-IBG-264" value="" style="ellipse;whiteSpace=wrap;html=1;aspect=fixed;movable=1;resizable=1;rotatable=1;deletable=1;editable=1;connectable=1;rotation=90;" parent="o__fEEJj0EwgaAU_-IBG-262" vertex="1">
                    <mxGeometry x="16" y="20" width="8" height="8" as="geometry"/>
                </mxCell>
                <mxCell id="o__fEEJj0EwgaAU_-IBG-268" value="latitudine" style="text;strokeColor=none;fillColor=none;spacingLeft=4;spacingRight=4;overflow=hidden;rotatable=0;points=[[0,0.5],[1,0.5]];portConstraint=eastwest;fontSize=12;" parent="1" vertex="1">
                    <mxGeometry x="658.5" y="430" width="70" height="30" as="geometry"/>
                </mxCell>
                <mxCell id="o__fEEJj0EwgaAU_-IBG-269" value="longitudine" style="text;strokeColor=none;fillColor=none;spacingLeft=4;spacingRight=4;overflow=hidden;rotatable=0;points=[[0,0.5],[1,0.5]];portConstraint=eastwest;fontSize=12;" parent="1" vertex="1">
                    <mxGeometry x="600" y="455" width="70" height="30" as="geometry"/>
                </mxCell>
                <mxCell id="o__fEEJj0EwgaAU_-IBG-270" value="coordinateGeografiche" style="text;strokeColor=none;fillColor=none;spacingLeft=4;spacingRight=4;overflow=hidden;rotatable=0;points=[[0,0.5],[1,0.5]];portConstraint=eastwest;fontSize=12;" parent="1" vertex="1">
                    <mxGeometry x="630" y="391" width="140" height="29" as="geometry"/>
                </mxCell>
                <mxCell id="o__fEEJj0EwgaAU_-IBG-277" value="nome" style="text;strokeColor=none;fillColor=none;spacingLeft=4;spacingRight=4;overflow=hidden;rotatable=0;points=[[0,0.5],[1,0.5]];portConstraint=eastwest;fontSize=12;direction=west;rotation=90;" parent="1" vertex="1">
                    <mxGeometry x="555" y="445" width="70" height="25" as="geometry"/>
                </mxCell>
                <mxCell id="o__fEEJj0EwgaAU_-IBG-278" value="codice" style="text;strokeColor=none;fillColor=none;spacingLeft=4;spacingRight=4;overflow=hidden;rotatable=0;points=[[0,0.5],[1,0.5]];portConstraint=eastwest;fontSize=12;direction=west;rotation=90;" parent="1" vertex="1">
                    <mxGeometry x="517.5" y="500" width="92.5" height="20" as="geometry"/>
                </mxCell>
                <mxCell id="o__fEEJj0EwgaAU_-IBG-283" value="timestamp" style="text;strokeColor=none;fillColor=none;spacingLeft=4;spacingRight=4;overflow=hidden;rotatable=0;points=[[0,0.5],[1,0.5]];portConstraint=eastwest;fontSize=12;" parent="1" vertex="1">
                    <mxGeometry x="570" y="50" width="70" height="30" as="geometry"/>
                </mxCell>
                <mxCell id="o__fEEJj0EwgaAU_-IBG-298" value="" style="group;rotation=-90;" parent="1" vertex="1" connectable="0">
                    <mxGeometry x="980" y="70" width="40" height="15" as="geometry"/>
                </mxCell>
                <mxCell id="o__fEEJj0EwgaAU_-IBG-299" value="" style="line;strokeWidth=1;rotatable=1;dashed=0;labelPosition=right;align=left;verticalAlign=middle;spacingTop=0;spacingLeft=6;points=[];portConstraint=eastwest;movable=1;resizable=1;deletable=1;editable=1;connectable=1;rotation=-90;" parent="o__fEEJj0EwgaAU_-IBG-298" vertex="1">
                    <mxGeometry x="4" y="7" width="32" height="10" as="geometry"/>
                </mxCell>
                <mxCell id="o__fEEJj0EwgaAU_-IBG-300" value="" style="ellipse;whiteSpace=wrap;html=1;aspect=fixed;movable=1;resizable=1;rotatable=1;deletable=1;editable=1;connectable=1;rotation=-90;" parent="o__fEEJj0EwgaAU_-IBG-298" vertex="1">
                    <mxGeometry x="17" y="-12" width="8" height="8" as="geometry"/>
                </mxCell>
                <mxCell id="o__fEEJj0EwgaAU_-IBG-301" value="" style="group;rotation=-90;" parent="1" vertex="1" connectable="0">
                    <mxGeometry x="1040" y="67.5" width="40" height="15" as="geometry"/>
                </mxCell>
                <mxCell id="o__fEEJj0EwgaAU_-IBG-302" value="" style="line;strokeWidth=1;rotatable=1;dashed=0;labelPosition=right;align=left;verticalAlign=middle;spacingTop=0;spacingLeft=6;points=[];portConstraint=eastwest;movable=1;resizable=1;deletable=1;editable=1;connectable=1;rotation=-90;" parent="o__fEEJj0EwgaAU_-IBG-301" vertex="1">
                    <mxGeometry x="4" y="7" width="32" height="10" as="geometry"/>
                </mxCell>
                <mxCell id="o__fEEJj0EwgaAU_-IBG-303" value="" style="ellipse;whiteSpace=wrap;html=1;aspect=fixed;movable=1;resizable=1;rotatable=1;deletable=1;editable=1;connectable=1;rotation=-90;" parent="o__fEEJj0EwgaAU_-IBG-301" vertex="1">
                    <mxGeometry x="17" y="-12" width="8" height="8" as="geometry"/>
                </mxCell>
                <mxCell id="o__fEEJj0EwgaAU_-IBG-304" value="" style="group;rotation=-90;" parent="1" vertex="1" connectable="0">
                    <mxGeometry x="1100" y="70" width="40" height="15" as="geometry"/>
                </mxCell>
                <mxCell id="o__fEEJj0EwgaAU_-IBG-305" value="" style="line;strokeWidth=1;rotatable=1;dashed=0;labelPosition=right;align=left;verticalAlign=middle;spacingTop=0;spacingLeft=6;points=[];portConstraint=eastwest;movable=1;resizable=1;deletable=1;editable=1;connectable=1;rotation=-90;" parent="o__fEEJj0EwgaAU_-IBG-304" vertex="1">
                    <mxGeometry x="4" y="7" width="32" height="10" as="geometry"/>
                </mxCell>
                <mxCell id="o__fEEJj0EwgaAU_-IBG-306" value="" style="ellipse;whiteSpace=wrap;html=1;aspect=fixed;movable=1;resizable=1;rotatable=1;deletable=1;editable=1;connectable=1;rotation=-90;" parent="o__fEEJj0EwgaAU_-IBG-304" vertex="1">
                    <mxGeometry x="17" y="-12" width="8" height="8" as="geometry"/>
                </mxCell>
                <mxCell id="o__fEEJj0EwgaAU_-IBG-318" value="nome" style="text;strokeColor=none;fillColor=none;spacingLeft=4;spacingRight=4;overflow=hidden;rotatable=0;points=[[0,0.5],[1,0.5]];portConstraint=eastwest;fontSize=12;" parent="1" vertex="1">
                    <mxGeometry x="980" y="29.5" width="70" height="30" as="geometry"/>
                </mxCell>
                <mxCell id="o__fEEJj0EwgaAU_-IBG-320" value="descrizione" style="text;strokeColor=none;fillColor=none;spacingLeft=4;spacingRight=4;overflow=hidden;rotatable=0;points=[[0,0.5],[1,0.5]];portConstraint=eastwest;fontSize=12;" parent="1" vertex="1">
                    <mxGeometry x="1030" y="29.5" width="80" height="30.5" as="geometry"/>
                </mxCell>
                <mxCell id="o__fEEJj0EwgaAU_-IBG-321" value="unitàMisura" style="text;strokeColor=none;fillColor=none;spacingLeft=4;spacingRight=4;overflow=hidden;rotatable=0;points=[[0,0.5],[1,0.5]];portConstraint=eastwest;fontSize=12;" parent="1" vertex="1">
                    <mxGeometry x="1110" y="33.5" width="90" height="26.5" as="geometry"/>
                </mxCell>
                <mxCell id="o__fEEJj0EwgaAU_-IBG-322" value="" style="group;rotation=-120;" parent="1" vertex="1" connectable="0">
                    <mxGeometry x="740" y="80" width="40" height="15" as="geometry"/>
                </mxCell>
                <mxCell id="o__fEEJj0EwgaAU_-IBG-323" value="" style="line;strokeWidth=1;rotatable=1;dashed=0;labelPosition=right;align=left;verticalAlign=middle;spacingTop=0;spacingLeft=6;points=[];portConstraint=eastwest;movable=1;resizable=1;deletable=1;editable=1;connectable=1;rotation=-120;" parent="o__fEEJj0EwgaAU_-IBG-322" vertex="1">
                    <mxGeometry x="6" y="6" width="32" height="10" as="geometry"/>
                </mxCell>
                <mxCell id="o__fEEJj0EwgaAU_-IBG-324" value="" style="ellipse;whiteSpace=wrap;html=1;aspect=fixed;movable=1;resizable=1;rotatable=1;deletable=1;editable=1;connectable=1;rotation=-120;" parent="o__fEEJj0EwgaAU_-IBG-322" vertex="1">
                    <mxGeometry x="9" y="-10" width="8" height="8" as="geometry"/>
                </mxCell>
                <mxCell id="o__fEEJj0EwgaAU_-IBG-325" value="punteggio" style="text;html=1;align=center;verticalAlign=middle;whiteSpace=wrap;rounded=0;" parent="1" vertex="1">
                    <mxGeometry x="770" y="22.5" width="60" height="30" as="geometry"/>
                </mxCell>
                <mxCell id="o__fEEJj0EwgaAU_-IBG-326" value="" style="group;rotation=-50;" parent="1" vertex="1" connectable="0">
                    <mxGeometry x="820" y="80" width="40" height="15" as="geometry"/>
                </mxCell>
                <mxCell id="o__fEEJj0EwgaAU_-IBG-327" value="" style="line;strokeWidth=1;rotatable=1;dashed=0;labelPosition=right;align=left;verticalAlign=middle;spacingTop=0;spacingLeft=6;points=[];portConstraint=eastwest;movable=1;resizable=1;deletable=1;editable=1;connectable=1;rotation=-50;" parent="o__fEEJj0EwgaAU_-IBG-326" vertex="1">
                    <mxGeometry x="1" y="6" width="32" height="10" as="geometry"/>
                </mxCell>
                <mxCell id="o__fEEJj0EwgaAU_-IBG-328" value="" style="ellipse;whiteSpace=wrap;html=1;aspect=fixed;movable=1;resizable=1;rotatable=1;deletable=1;editable=1;connectable=1;rotation=-50;" parent="o__fEEJj0EwgaAU_-IBG-326" vertex="1">
                    <mxGeometry x="27" y="-8" width="8" height="8" as="geometry"/>
                </mxCell>
                <mxCell id="o__fEEJj0EwgaAU_-IBG-329" value="" style="group;rotation=-90;" parent="1" vertex="1" connectable="0">
                    <mxGeometry x="780" y="65" width="40" height="15" as="geometry"/>
                </mxCell>
                <mxCell id="o__fEEJj0EwgaAU_-IBG-330" value="" style="line;strokeWidth=1;rotatable=1;dashed=0;labelPosition=right;align=left;verticalAlign=middle;spacingTop=0;spacingLeft=6;points=[];portConstraint=eastwest;movable=1;resizable=1;deletable=1;editable=1;connectable=1;rotation=-90;" parent="o__fEEJj0EwgaAU_-IBG-329" vertex="1">
                    <mxGeometry x="4" y="7" width="32" height="10" as="geometry"/>
                </mxCell>
                <mxCell id="o__fEEJj0EwgaAU_-IBG-331" value="" style="ellipse;whiteSpace=wrap;html=1;aspect=fixed;movable=1;resizable=1;rotatable=1;deletable=1;editable=1;connectable=1;rotation=-90;" parent="o__fEEJj0EwgaAU_-IBG-329" vertex="1">
                    <mxGeometry x="17" y="-12" width="8" height="8" as="geometry"/>
                </mxCell>
                <mxCell id="58" value="valutare" style="shape=rhombus;perimeter=rhombusPerimeter;whiteSpace=wrap;html=1;align=center;" parent="1" vertex="1">
                    <mxGeometry x="740" y="90" width="120" height="60" as="geometry"/>
                </mxCell>
                <mxCell id="o__fEEJj0EwgaAU_-IBG-332" value="commento (0,1)" style="text;html=1;align=center;verticalAlign=middle;whiteSpace=wrap;rounded=0;" parent="1" vertex="1">
                    <mxGeometry x="850" y="45" width="90" height="25" as="geometry"/>
                </mxCell>
                <mxCell id="o__fEEJj0EwgaAU_-IBG-333" value="valoreMisurato" style="text;html=1;align=center;verticalAlign=middle;whiteSpace=wrap;rounded=0;" parent="1" vertex="1">
                    <mxGeometry x="720" y="42.5" width="60" height="30" as="geometry"/>
                </mxCell>
                <mxCell id="o__fEEJj0EwgaAU_-IBG-334" value="" style="group;rotation=0;" parent="1" vertex="1" connectable="0">
                    <mxGeometry x="1150" y="110" width="40" height="15" as="geometry"/>
                </mxCell>
                <mxCell id="o__fEEJj0EwgaAU_-IBG-335" value="" style="line;strokeWidth=1;rotatable=1;dashed=0;labelPosition=right;align=left;verticalAlign=middle;spacingTop=0;spacingLeft=6;points=[];portConstraint=eastwest;movable=1;resizable=1;deletable=1;editable=1;connectable=1;rotation=0;" parent="o__fEEJj0EwgaAU_-IBG-334" vertex="1">
                    <mxGeometry y="2" width="32" height="10" as="geometry"/>
                </mxCell>
                <mxCell id="o__fEEJj0EwgaAU_-IBG-336" value="" style="ellipse;whiteSpace=wrap;html=1;aspect=fixed;movable=1;resizable=1;rotatable=1;deletable=1;editable=1;connectable=1;rotation=0;fillColor=#000000;" parent="o__fEEJj0EwgaAU_-IBG-334" vertex="1">
                    <mxGeometry x="31" y="5" width="8" height="8" as="geometry"/>
                </mxCell>
                <mxCell id="o__fEEJj0EwgaAU_-IBG-337" value="idCategoriaParametriClimatici" style="text;strokeColor=none;fillColor=none;spacingLeft=4;spacingRight=4;overflow=hidden;rotatable=0;points=[[0,0.5],[1,0.5]];portConstraint=eastwest;fontSize=12;" parent="1" vertex="1">
                    <mxGeometry x="1190" y="102.5" width="200" height="37.5" as="geometry"/>
                </mxCell>
                <mxCell id="o__fEEJj0EwgaAU_-IBG-359" value="" style="group" parent="1" vertex="1" connectable="0">
                    <mxGeometry x="650" y="350" width="40" height="15" as="geometry"/>
                </mxCell>
                <mxCell id="o__fEEJj0EwgaAU_-IBG-360" value="" style="line;strokeWidth=1;rotatable=1;dashed=0;labelPosition=right;align=left;verticalAlign=middle;spacingTop=0;spacingLeft=6;points=[];portConstraint=eastwest;movable=1;resizable=1;deletable=1;editable=1;connectable=1;" parent="o__fEEJj0EwgaAU_-IBG-359" vertex="1">
                    <mxGeometry y="2.5" width="32" height="10" as="geometry"/>
                </mxCell>
                <mxCell id="o__fEEJj0EwgaAU_-IBG-361" value="" style="ellipse;whiteSpace=wrap;html=1;aspect=fixed;movable=1;resizable=1;rotatable=1;deletable=1;editable=1;connectable=1;fillColor=#000000;" parent="o__fEEJj0EwgaAU_-IBG-359" vertex="1">
                    <mxGeometry x="32" y="3.5" width="8" height="8" as="geometry"/>
                </mxCell>
                <mxCell id="o__fEEJj0EwgaAU_-IBG-362" value="idPuntoInteresse" style="text;strokeColor=none;fillColor=none;spacingLeft=4;spacingRight=4;overflow=hidden;rotatable=0;points=[[0,0.5],[1,0.5]];portConstraint=eastwest;fontSize=12;" parent="1" vertex="1">
                    <mxGeometry x="690" y="343" width="140" height="29" as="geometry"/>
                </mxCell>
                <mxCell id="o__fEEJj0EwgaAU_-IBG-367" value="" style="ellipse;whiteSpace=wrap;html=1;aspect=fixed;movable=1;resizable=1;rotatable=1;deletable=1;editable=1;connectable=1;rotation=-90;fillColor=#000000;" parent="1" vertex="1">
                    <mxGeometry x="689.5" y="74.5" width="8" height="8" as="geometry"/>
                </mxCell>
                <mxCell id="o__fEEJj0EwgaAU_-IBG-368" value="" style="endArrow=none;html=1;rounded=0;" parent="1" edge="1">
                    <mxGeometry relative="1" as="geometry">
                        <mxPoint x="320" y="120" as="sourcePoint"/>
                        <mxPoint x="690" y="79" as="targetPoint"/>
                        <Array as="points">
                            <mxPoint x="320" y="82"/>
                        </Array>
                    </mxGeometry>
                </mxCell>
                <mxCell id="o__fEEJj0EwgaAU_-IBG-369" value="" style="endArrow=none;html=1;rounded=0;" parent="1" edge="1">
                    <mxGeometry relative="1" as="geometry">
                        <mxPoint x="600" y="280" as="sourcePoint"/>
                        <mxPoint x="500" y="80" as="targetPoint"/>
                        <Array as="points">
                            <mxPoint x="500" y="280"/>
                        </Array>
                    </mxGeometry>
                </mxCell>
                <mxCell id="212" value="" style="group;rotation=90;" parent="1" vertex="1" connectable="0">
                    <mxGeometry x="540" y="430" width="40" height="15" as="geometry"/>
                </mxCell>
                <mxCell id="213" value="" style="line;strokeWidth=1;rotatable=1;dashed=0;labelPosition=right;align=left;verticalAlign=middle;spacingTop=0;spacingLeft=6;points=[];portConstraint=eastwest;movable=1;resizable=1;deletable=1;editable=1;connectable=1;rotation=90;" parent="212" vertex="1">
                    <mxGeometry x="4" y="-1" width="32" height="10" as="geometry"/>
                </mxCell>
                <mxCell id="214" value="" style="ellipse;whiteSpace=wrap;html=1;aspect=fixed;movable=1;resizable=1;rotatable=1;deletable=1;editable=1;connectable=1;rotation=90;" parent="212" vertex="1">
                    <mxGeometry x="16" y="20" width="8" height="8" as="geometry"/>
                </mxCell>
                <mxCell id="215" value="nome" style="text;strokeColor=none;fillColor=none;spacingLeft=4;spacingRight=4;overflow=hidden;rotatable=0;points=[[0,0.5],[1,0.5]];portConstraint=eastwest;fontSize=12;direction=west;rotation=90;" parent="1" vertex="1">
                    <mxGeometry x="487.5" y="480" width="92.5" height="20" as="geometry"/>
                </mxCell>
                <mxCell id="216" value="nazione " style="text;strokeColor=none;fillColor=none;spacingLeft=4;spacingRight=4;overflow=hidden;rotatable=0;points=[[0,0.5],[1,0.5]];portConstraint=eastwest;fontSize=12;" parent="1" vertex="1">
                    <mxGeometry x="497.5" y="400" width="52.5" height="20" as="geometry"/>
                </mxCell>
            </root>
        </mxGraphModel>
    </diagram>
</mxfile>